<?xml version="1.0" encoding="utf-8" ?>
<svg baseProfile="full" height="900" version="1.1" width="1600" xmlns="http://www.w3.org/2000/svg" xmlns:ev="http://www.w3.org/2001/xml-events" xmlns:xlink="http://www.w3.org/1999/xlink"><defs /><rect fill="#0E1C36" height="900" width="1600" x="0" y="0" /><rect fill="#1A2A4A" height="804" opacity="1.0" rx="24" ry="24" stroke="#1BE7FF" stroke-width="2" width="220" x="48" y="48" /><text dominant-baseline="hanging" fill="#F5F7FA" font-family="Space Grotesk" font-size="22" x="80" y="80">Ops console</text><text dominant-baseline="hanging" fill="#1BE7FF" font-family="Inter" font-size="16" x="80" y="144">Home</text><text dominant-baseline="hanging" fill="#F5F7FA" font-family="Inter" font-size="16" x="80" y="188">Actions</text><text dominant-baseline="hanging" fill="#F5F7FA" font-family="Inter" font-size="16" x="80" y="232">Logs</text><text dominant-baseline="hanging" fill="#F5F7FA" font-family="Inter" font-size="16" x="80" y="276">Alerts</text><text dominant-baseline="hanging" fill="#F5F7FA" font-family="Inter" font-size="16" x="80" y="320">Settings</text><rect fill="#E1E6EE" height="260" opacity="1.0" rx="20" ry="20" stroke="#1BE7FF" stroke-width="2" width="480" x="308" y="48" /><text dominant-baseline="hanging" fill="#152238" font-family="Space Grotesk" font-size="22" x="332" y="72">Net Liquidity</text><text dominant-baseline="hanging" fill="#152238" font-family="Space Grotesk" font-size="28" x="332" y="132">$182.3M</text><text dominant-baseline="hanging" fill="#19B37E" font-family="Inter" font-size="16" x="332" y="192">+2.4% vs last hour</text><line stroke="#1BE7FF" stroke-width="4" x1="332" x2="764" y1="238" y2="238" /><rect fill="#E1E6EE" height="260" opacity="1.0" rx="20" ry="20" stroke="#F5A623" stroke-width="2" width="520" x="820" y="48" /><text dominant-baseline="hanging" fill="#152238" font-family="Space Grotesk" font-size="22" x="844" y="72">Supply pressure</text><polyline fill="none" opacity="0.35" points="844.0,220.0 911.4285714285714,193.8134283219332 978.8571428571429,179.05302768836341 1046.2857142857142,182.15930754809838 1113.7142857142858,201.77688295706255 1181.142857142857,229.3458792261652 1248.5714285714284,252.83692226365724 1316.0,262.0" stroke="#F5A623" stroke-linecap="round" stroke-linejoin="round" stroke-width="12" /><polyline fill="none" points="844.0,220.0 911.4285714285714,193.8134283219332 978.8571428571429,179.05302768836341 1046.2857142857142,182.15930754809838 1113.7142857142858,201.77688295706255 1181.142857142857,229.3458792261652 1248.5714285714284,252.83692226365724 1316.0,262.0" stroke="#1BE7FF" stroke-linecap="round" stroke-linejoin="round" stroke-width="6" /><rect fill="#E1E6EE" height="220" opacity="1.0" rx="20" ry="20" stroke="#A5B3C6" stroke-width="2" width="780" x="308" y="340" /><text dominant-baseline="hanging" fill="#152238" font-family="Space Grotesk" font-size="22" x="332" y="364">Queued actions</text><rect fill="rgb(225,225,225)" height="40" opacity="0.5" rx="6" ry="6" width="59" x="332" y="430" /><rect fill="rgb(219,219,219)" height="40" opacity="0.5" rx="6" ry="6" width="59" x="393" y="430" /><rect fill="rgb(213,213,213)" height="40" opacity="0.5" rx="6" ry="6" width="59" x="454" y="430" /><rect fill="rgb(207,207,207)" height="40" opacity="0.5" rx="6" ry="6" width="59" x="515" y="430" /><rect fill="rgb(201,201,201)" height="40" opacity="0.5" rx="6" ry="6" width="59" x="576" y="430" /><rect fill="rgb(195,195,195)" height="40" opacity="0.5" rx="6" ry="6" width="59" x="637" y="430" /><rect fill="rgb(189,189,189)" height="40" opacity="0.5" rx="6" ry="6" width="59" x="698" y="430" /><rect fill="rgb(183,183,183)" height="40" opacity="0.5" rx="6" ry="6" width="59" x="759" y="430" /><rect fill="rgb(177,177,177)" height="40" opacity="0.5" rx="6" ry="6" width="59" x="820" y="430" /><rect fill="rgb(171,171,171)" height="40" opacity="0.5" rx="6" ry="6" width="59" x="881" y="430" /><rect fill="rgb(165,165,165)" height="40" opacity="0.5" rx="6" ry="6" width="59" x="942" y="430" /><rect fill="rgb(159,159,159)" height="40" opacity="0.5" rx="6" ry="6" width="59" x="1003" y="430" /><text dominant-baseline="hanging" fill="#152238" font-family="Inter" font-size="16" x="332" y="490">Shimmer loader communicates 150–200ms ease-out transitions</text><rect fill="#FFFFFF" height="220" opacity="1.0" rx="20" ry="20" stroke="#A5B3C6" stroke-width="2" width="780" x="308" y="592" /><text dominant-baseline="hanging" fill="#152238" font-family="Space Grotesk" font-size="22" x="332" y="616">Recent signals</text><text dominant-baseline="hanging" fill="#152238" font-family="JetBrains Mono" font-size="16" x="332" y="682">08:34:21 validator/03 synced in 182 ms</text><text dominant-baseline="hanging" fill="#152238" font-family="JetBrains Mono" font-size="16" x="332" y="714">08:34:24 swap-router defused guard rail limit</text><text dominant-baseline="hanging" fill="#152238" font-family="JetBrains Mono" font-size="16" x="332" y="746">08:34:28 streaming proof window recalculated</text></svg>