<?xml version="1.0" encoding="utf-8" ?>
<svg baseProfile="full" height="900" version="1.1" width="1600" xmlns="http://www.w3.org/2000/svg" xmlns:ev="http://www.w3.org/2001/xml-events" xmlns:xlink="http://www.w3.org/1999/xlink"><defs /><rect fill="#0E1C36" height="900" width="1600" x="0" y="0" /><rect fill="#1A2A4A" height="804" opacity="1.0" rx="24" ry="24" stroke="#1BE7FF" stroke-width="2" width="220" x="48" y="48" /><text dominant-baseline="hanging" fill="#F5F7FA" font-family="Space Grotesk" font-size="22" x="80" y="80">Ops console</text><text dominant-baseline="hanging" fill="#1BE7FF" font-family="Inter" font-size="16" x="80" y="144">Home</text><text dominant-baseline="hanging" fill="#F5F7FA" font-family="Inter" font-size="16" x="80" y="188">Actions</text><text dominant-baseline="hanging" fill="#F5F7FA" font-family="Inter" font-size="16" x="80" y="232">Logs</text><text dominant-baseline="hanging" fill="#F5F7FA" font-family="Inter" font-size="16" x="80" y="276">Alerts</text><text dominant-baseline="hanging" fill="#F5F7FA" font-family="Inter" font-size="16" x="80" y="320">Settings</text><rect fill="#E1E6EE" height="804" opacity="1.0" rx="20" ry="20" stroke="#19B37E" stroke-width="4" width="393" x="308" y="48" /><text dominant-baseline="hanging" fill="#152238" font-family="Space Grotesk" font-size="22" x="332" y="72">Success state</text><text dominant-baseline="hanging" fill="#19B37E" font-family="Inter" font-size="16" x="332" y="118">Annotation color: Proof Green</text><polyline fill="none" opacity="0.35" points="332.0,252.0 381.2857142857143,221.44899970892206 430.57142857142856,204.22853230309065 479.8571428571429,207.85252547278145 529.1428571428571,230.73969678323965 578.4285714285714,262.9035257638594 627.7142857142858,290.30974264093345 677.0,301.0" stroke="#1BE7FF" stroke-linecap="round" stroke-linejoin="round" stroke-width="12" /><polyline fill="none" points="332.0,252.0 381.2857142857143,221.44899970892206 430.57142857142856,204.22853230309065 479.8571428571429,207.85252547278145 529.1428571428571,230.73969678323965 578.4285714285714,262.9035257638594 627.7142857142858,290.30974264093345 677.0,301.0" stroke="#19B37E" stroke-linecap="round" stroke-linejoin="round" stroke-width="6" /><text dominant-baseline="hanging" fill="#152238" font-family="Inter" font-size="14" x="332" y="328">Charts use Ion + Amber lines with Guard Rail thresholds</text><text dominant-baseline="hanging" fill="#19B37E" font-family="Inter" font-size="18" x="332" y="378">Validator proofs sealed +1.2% capacity</text><text dominant-baseline="hanging" fill="#1BE7FF" font-family="Inter" font-size="16" x="332" y="428">CTA: Review details →</text><rect fill="#E1E6EE" height="804" opacity="1.0" rx="20" ry="20" stroke="#F5A623" stroke-width="4" width="393" x="733" y="48" /><text dominant-baseline="hanging" fill="#152238" font-family="Space Grotesk" font-size="22" x="757" y="72">Warning state</text><text dominant-baseline="hanging" fill="#F5A623" font-family="Inter" font-size="16" x="757" y="118">Annotation color: Molten Amber</text><polyline fill="none" opacity="0.35" points="757.0,252.0 806.2857142857143,221.44899970892206 855.5714285714286,204.22853230309065 904.8571428571429,207.85252547278145 954.1428571428571,230.73969678323965 1003.4285714285714,262.9035257638594 1052.7142857142858,290.30974264093345 1102.0,301.0" stroke="#1BE7FF" stroke-linecap="round" stroke-linejoin="round" stroke-width="12" /><polyline fill="none" points="757.0,252.0 806.2857142857143,221.44899970892206 855.5714285714286,204.22853230309065 904.8571428571429,207.85252547278145 954.1428571428571,230.73969678323965 1003.4285714285714,262.9035257638594 1052.7142857142858,290.30974264093345 1102.0,301.0" stroke="#F5A623" stroke-linecap="round" stroke-linejoin="round" stroke-width="6" /><text dominant-baseline="hanging" fill="#152238" font-family="Inter" font-size="14" x="757" y="328">Charts use Ion + Amber lines with Guard Rail thresholds</text><text dominant-baseline="hanging" fill="#F5A623" font-family="Inter" font-size="18" x="757" y="378">Liquidity pocket delayed 90s • review soon</text><text dominant-baseline="hanging" fill="#1BE7FF" font-family="Inter" font-size="16" x="757" y="428">CTA: Review details →</text><rect fill="#E1E6EE" height="804" opacity="1.0" rx="20" ry="20" stroke="#FF4E4E" stroke-width="4" width="393" x="1158" y="48" /><text dominant-baseline="hanging" fill="#152238" font-family="Space Grotesk" font-size="22" x="1182" y="72">Failure state</text><text dominant-baseline="hanging" fill="#FF4E4E" font-family="Inter" font-size="16" x="1182" y="118">Annotation color: Guard Rail</text><polyline fill="none" opacity="0.35" points="1182.0,252.0 1231.2857142857142,221.44899970892206 1280.5714285714287,204.22853230309065 1329.857142857143,207.85252547278145 1379.142857142857,230.73969678323965 1428.4285714285716,262.9035257638594 1477.7142857142858,290.30974264093345 1527.0,301.0" stroke="#1BE7FF" stroke-linecap="round" stroke-linejoin="round" stroke-width="12" /><polyline fill="none" points="1182.0,252.0 1231.2857142857142,221.44899970892206 1280.5714285714287,204.22853230309065 1329.857142857143,207.85252547278145 1379.142857142857,230.73969678323965 1428.4285714285716,262.9035257638594 1477.7142857142858,290.30974264093345 1527.0,301.0" stroke="#FF4E4E" stroke-linecap="round" stroke-linejoin="round" stroke-width="6" /><text dominant-baseline="hanging" fill="#152238" font-family="Inter" font-size="14" x="1182" y="328">Charts use Ion + Amber lines with Guard Rail thresholds</text><text dominant-baseline="hanging" fill="#FF4E4E" font-family="Inter" font-size="18" x="1182" y="378">Guard Rail tripped by 3.1% variance</text><text dominant-baseline="hanging" fill="#1BE7FF" font-family="Inter" font-size="16" x="1182" y="428">CTA: Review details →</text></svg>