<?xml version="1.0" encoding="utf-8" ?>
<svg baseProfile="full" height="900" version="1.1" width="1600" xmlns="http://www.w3.org/2000/svg" xmlns:ev="http://www.w3.org/2001/xml-events" xmlns:xlink="http://www.w3.org/1999/xlink"><defs /><rect fill="#0E1C36" height="900" width="1600" x="0" y="0" /><rect fill="#1A2A4A" height="804" opacity="1.0" rx="24" ry="24" stroke="#1BE7FF" stroke-width="2" width="220" x="48" y="48" /><text dominant-baseline="hanging" fill="#F5F7FA" font-family="Space Grotesk" font-size="22" x="80" y="80">Ops console</text><text dominant-baseline="hanging" fill="#1BE7FF" font-family="Inter" font-size="16" x="80" y="144">Home</text><text dominant-baseline="hanging" fill="#F5F7FA" font-family="Inter" font-size="16" x="80" y="188">Actions</text><text dominant-baseline="hanging" fill="#F5F7FA" font-family="Inter" font-size="16" x="80" y="232">Logs</text><text dominant-baseline="hanging" fill="#F5F7FA" font-family="Inter" font-size="16" x="80" y="276">Alerts</text><text dominant-baseline="hanging" fill="#F5F7FA" font-family="Inter" font-size="16" x="80" y="320">Settings</text><rect fill="#E1E6EE" height="804" opacity="1.0" rx="20" ry="20" stroke="#1BE7FF" stroke-width="2" width="1244" x="308" y="48" /><rect fill="#FFFFFF" height="756" opacity="1.0" rx="20" ry="20" stroke="#A5B3C6" stroke-width="2" width="336" x="332" y="72" /><text dominant-baseline="hanging" fill="#152238" font-family="Space Grotesk" font-size="22" x="348" y="88">Action metadata</text><text dominant-baseline="hanging" fill="#152238" font-family="Inter" font-size="14" x="340" y="152">Action ID</text><text dominant-baseline="hanging" fill="#152238" font-family="Inter" font-size="18" x="340" y="176">#6742-HEG-0342</text><text dominant-baseline="hanging" fill="#152238" font-family="Inter" font-size="14" x="340" y="224">Priority</text><text dominant-baseline="hanging" fill="#152238" font-family="Inter" font-size="18" x="340" y="248">High (auto)</text><text dominant-baseline="hanging" fill="#152238" font-family="Inter" font-size="14" x="340" y="296">Submitted</text><text dominant-baseline="hanging" fill="#152238" font-family="Inter" font-size="18" x="340" y="320">08:24:11 UTC</text><text dominant-baseline="hanging" fill="#152238" font-family="Inter" font-size="14" x="340" y="368">Operator</text><text dominant-baseline="hanging" fill="#152238" font-family="Inter" font-size="18" x="340" y="392">auto-signer-02</text><rect fill="#FFFFFF" height="356" opacity="1.0" rx="20" ry="20" stroke="#A5B3C6" stroke-width="2" width="828" x="700" y="72" /><text dominant-baseline="hanging" fill="#152238" font-family="Space Grotesk" font-size="22" x="724" y="96">Execution timeline</text><line stroke="#1BE7FF" stroke-width="4" x1="724" x2="724" y1="182" y2="222" /><circle cx="724" cy="182" fill="#1BE7FF" r="8" /><text dominant-baseline="hanging" fill="#152238" font-family="Inter" font-size="18" x="748" y="172">Validate inputs</text><line stroke="#1BE7FF" stroke-width="4" x1="724" x2="724" y1="230" y2="270" /><circle cx="724" cy="230" fill="#1BE7FF" r="8" /><text dominant-baseline="hanging" fill="#152238" font-family="Inter" font-size="18" x="748" y="220">Simulate swap path</text><line stroke="#1BE7FF" stroke-width="4" x1="724" x2="724" y1="278" y2="318" /><circle cx="724" cy="278" fill="#1BE7FF" r="8" /><text dominant-baseline="hanging" fill="#152238" font-family="Inter" font-size="18" x="748" y="268">Multisig approval</text><line stroke="#1BE7FF" stroke-width="4" x1="724" x2="724" y1="326" y2="366" /><circle cx="724" cy="326" fill="#1BE7FF" r="8" /><text dominant-baseline="hanging" fill="#152238" font-family="Inter" font-size="18" x="748" y="316">Broadcast tx</text><line stroke="#1BE7FF" stroke-width="4" x1="724" x2="724" y1="374" y2="414" /><circle cx="724" cy="374" fill="#1BE7FF" r="8" /><text dominant-baseline="hanging" fill="#152238" font-family="Inter" font-size="18" x="748" y="364">Confirm finality</text><rect fill="#FFFFFF" height="368" opacity="1.0" rx="20" ry="20" stroke="#A5B3C6" stroke-width="2" width="828" x="700" y="460" /><text dominant-baseline="hanging" fill="#152238" font-family="Space Grotesk" font-size="22" x="724" y="484">Risk summary &amp; logs</text><text dominant-baseline="hanging" fill="#FF4E4E" font-family="Inter" font-size="18" x="724" y="540">Guard Rail triggered on price impact &gt; 2.5%</text><text dominant-baseline="hanging" fill="#152238" font-family="JetBrains Mono" font-size="16" x="724" y="600">08:25:02 WARN slippage_estimate=2.8%</text><text dominant-baseline="hanging" fill="#152238" font-family="JetBrains Mono" font-size="16" x="724" y="634">08:25:05 INFO quorum_signatures=7/7</text><text dominant-baseline="hanging" fill="#152238" font-family="JetBrains Mono" font-size="16" x="724" y="668">08:25:08 INFO broadcast_txid=0x9821…</text></svg>