<?xml version="1.0" encoding="utf-8" ?>
<svg baseProfile="full" height="900" version="1.1" width="1600" xmlns="http://www.w3.org/2000/svg" xmlns:ev="http://www.w3.org/2001/xml-events" xmlns:xlink="http://www.w3.org/1999/xlink"><defs /><rect fill="#F4F7FB" height="900" width="1600" x="0" y="0" /><text dominant-baseline="hanging" fill="#152238" font-family="Space Grotesk" font-size="28" x="48" y="8">Outcome states wireframe</text><text dominant-baseline="hanging" fill="#152238" font-family="Inter" font-size="16" x="48" y="48">Success / warning / failure tiles</text><rect fill="#FFFFFF" height="804" opacity="1.0" rx="20" ry="20" stroke="#A5B3C6" stroke-width="2" width="480" x="48" y="48" /><text dominant-baseline="hanging" fill="#152238" font-family="Inter" font-size="18" x="72" y="72">Success confirmation</text><line stroke="#A5B3C6" stroke-width="2" x1="72" x2="504" y1="138" y2="138" /><rect fill="#FFFFFF" height="804" opacity="1.0" rx="20" ry="20" stroke="#A5B3C6" stroke-width="2" width="480" x="560" y="48" /><text dominant-baseline="hanging" fill="#152238" font-family="Inter" font-size="18" x="584" y="72">Warning resolution</text><line stroke="#A5B3C6" stroke-width="2" x1="584" x2="1016" y1="138" y2="138" /><rect fill="#FFFFFF" height="804" opacity="1.0" rx="20" ry="20" stroke="#A5B3C6" stroke-width="2" width="480" x="1072" y="48" /><text dominant-baseline="hanging" fill="#152238" font-family="Inter" font-size="18" x="1096" y="72">Failure diagnostics</text><line stroke="#A5B3C6" stroke-width="2" x1="1096" x2="1528" y1="138" y2="138" /><rect fill="none" height="100" rx="12" ry="12" stroke="#A5B3C6" width="432" x="72" y="168" /><rect fill="none" height="100" rx="12" ry="12" stroke="#A5B3C6" width="432" x="584" y="168" /><rect fill="none" height="100" rx="12" ry="12" stroke="#A5B3C6" width="432" x="1096" y="168" /></svg>