<svg xmlns="http://www.w3.org/2000/svg" width="1600" height="980" viewBox="0 0 1600 980" role="img" aria-labelledby="title desc">
  <title>Shipped lane on-chain growth vs block packing</title>
  <desc>Line chart of on-chain growth on the shipped RecursiveBlockV1 lane as average shielded tx per block rises from 1 to 64. The y-axis uses a logarithmic scale. Three series show 1 TPS, 10 TPS, and 100 TPS.</desc>
  <defs>
    <filter id="softShadow" x="-20%" y="-20%" width="140%" height="140%">
      <feDropShadow dx="0" dy="10" stdDeviation="12" flood-color="#0E1C36" flood-opacity="0.08"/>
    </filter>
  </defs>
  <rect width="100%" height="100%" fill="#FFFFFF"/>
<!-- Generated by scripts/render_scalability_plots.py -->
  <rect x="56.0" y="48.0" width="1488.0" height="884.0" rx="24" fill="#F4F7FB" filter="url(#softShadow)"/>
  <text x="112.0" y="112.0" fill="#0E1C36" font-family="'Space Grotesk', Inter, sans-serif" font-size="34" font-weight="600" text-anchor="start" >Shipped Lane On-Chain Growth vs. Block Packing</text>
  <text x="112.0" y="148.0" fill="#5F6B7A" font-family="'Space Grotesk', Inter, sans-serif" font-size="18" font-weight="400" text-anchor="start" >RecursiveBlockV1 = 699,404 B. Shallow packing makes chain growth proof-bound.</text>
  <text x="112.0" y="178.0" fill="#5F6B7A" font-family="'Space Grotesk', Inter, sans-serif" font-size="18" font-weight="400" text-anchor="start" >Packing 32-64 shielded tx per non-empty shielded block changes the slope materially.</text>
  <text x="112.0" y="208.0" fill="#5F6B7A" font-family="'JetBrains Mono', ui-monospace, monospace" font-size="14" font-weight="400" text-anchor="start" >Y axis: GiB/day, logarithmic scale. X axis: average shielded tx per non-empty shielded block.</text>
  <line x1="150.0" y1="718.4" x2="1330.0" y2="718.4" stroke="#E1E6EE" stroke-width="1"/>
  <text x="132.0" y="723.4" fill="#5F6B7A" font-family="'JetBrains Mono', ui-monospace, monospace" font-size="14" font-weight="400" text-anchor="end" >1</text>
  <line x1="150.0" y1="635.1" x2="1330.0" y2="635.1" stroke="#E1E6EE" stroke-width="1"/>
  <text x="132.0" y="640.1" fill="#5F6B7A" font-family="'JetBrains Mono', ui-monospace, monospace" font-size="14" font-weight="400" text-anchor="end" >5</text>
  <line x1="150.0" y1="599.2" x2="1330.0" y2="599.2" stroke="#E1E6EE" stroke-width="1"/>
  <text x="132.0" y="604.2" fill="#5F6B7A" font-family="'JetBrains Mono', ui-monospace, monospace" font-size="14" font-weight="400" text-anchor="end" >10</text>
  <line x1="150.0" y1="515.9" x2="1330.0" y2="515.9" stroke="#E1E6EE" stroke-width="1"/>
  <text x="132.0" y="520.9" fill="#5F6B7A" font-family="'JetBrains Mono', ui-monospace, monospace" font-size="14" font-weight="400" text-anchor="end" >50</text>
  <line x1="150.0" y1="480.0" x2="1330.0" y2="480.0" stroke="#E1E6EE" stroke-width="1"/>
  <text x="132.0" y="485.0" fill="#5F6B7A" font-family="'JetBrains Mono', ui-monospace, monospace" font-size="14" font-weight="400" text-anchor="end" >100</text>
  <line x1="150.0" y1="396.7" x2="1330.0" y2="396.7" stroke="#E1E6EE" stroke-width="1"/>
  <text x="132.0" y="401.7" fill="#5F6B7A" font-family="'JetBrains Mono', ui-monospace, monospace" font-size="14" font-weight="400" text-anchor="end" >500</text>
  <line x1="150.0" y1="360.8" x2="1330.0" y2="360.8" stroke="#E1E6EE" stroke-width="1"/>
  <text x="132.0" y="365.8" fill="#5F6B7A" font-family="'JetBrains Mono', ui-monospace, monospace" font-size="14" font-weight="400" text-anchor="end" >1000</text>
  <line x1="150.0" y1="277.4" x2="1330.0" y2="277.4" stroke="#E1E6EE" stroke-width="1"/>
  <text x="132.0" y="282.4" fill="#5F6B7A" font-family="'JetBrains Mono', ui-monospace, monospace" font-size="14" font-weight="400" text-anchor="end" >5000</text>
  <line x1="150.0" y1="260.0" x2="150.0" y2="730.0" stroke="#0E1C36" stroke-width="2"/>
  <line x1="150.0" y1="730.0" x2="1330.0" y2="730.0" stroke="#0E1C36" stroke-width="2"/>
  <line x1="150.0" y1="730.0" x2="150.0" y2="738.0" stroke="#0E1C36" stroke-width="2"/>
  <text x="150.0" y="762.0" fill="#5F6B7A" font-family="'JetBrains Mono', ui-monospace, monospace" font-size="14" font-weight="400" text-anchor="middle" >1</text>
  <line x1="346.7" y1="730.0" x2="346.7" y2="738.0" stroke="#0E1C36" stroke-width="2"/>
  <text x="346.7" y="762.0" fill="#5F6B7A" font-family="'JetBrains Mono', ui-monospace, monospace" font-size="14" font-weight="400" text-anchor="middle" >2</text>
  <line x1="543.3" y1="730.0" x2="543.3" y2="738.0" stroke="#0E1C36" stroke-width="2"/>
  <text x="543.3" y="762.0" fill="#5F6B7A" font-family="'JetBrains Mono', ui-monospace, monospace" font-size="14" font-weight="400" text-anchor="middle" >4</text>
  <line x1="740.0" y1="730.0" x2="740.0" y2="738.0" stroke="#0E1C36" stroke-width="2"/>
  <text x="740.0" y="762.0" fill="#5F6B7A" font-family="'JetBrains Mono', ui-monospace, monospace" font-size="14" font-weight="400" text-anchor="middle" >8</text>
  <line x1="936.7" y1="730.0" x2="936.7" y2="738.0" stroke="#0E1C36" stroke-width="2"/>
  <text x="936.7" y="762.0" fill="#5F6B7A" font-family="'JetBrains Mono', ui-monospace, monospace" font-size="14" font-weight="400" text-anchor="middle" >16</text>
  <line x1="1133.3" y1="730.0" x2="1133.3" y2="738.0" stroke="#0E1C36" stroke-width="2"/>
  <text x="1133.3" y="762.0" fill="#5F6B7A" font-family="'JetBrains Mono', ui-monospace, monospace" font-size="14" font-weight="400" text-anchor="middle" >32</text>
  <line x1="1330.0" y1="730.0" x2="1330.0" y2="738.0" stroke="#0E1C36" stroke-width="2"/>
  <text x="1330.0" y="762.0" fill="#5F6B7A" font-family="'JetBrains Mono', ui-monospace, monospace" font-size="14" font-weight="400" text-anchor="middle" >64</text>
  <text x="38.0" y="495.0" fill="#0E1C36" font-family="'Space Grotesk', Inter, sans-serif" font-size="18" font-weight="500" text-anchor="middle" transform="rotate(-90 58 490)">GiB/day</text>
  <text x="740.0" y="804.0" fill="#0E1C36" font-family="'Space Grotesk', Inter, sans-serif" font-size="18" font-weight="500" text-anchor="middle" >average shielded tx per non-empty block</text>
  <polyline points="150.0,509.7 346.7,545.6 543.3,581.4 740.0,617.2 936.7,652.7 1133.3,688.0 1330.0,722.8" fill="none" stroke="#1BE7FF" stroke-width="5" stroke-linejoin="round" stroke-linecap="round"/>
  <circle cx="150.0" cy="509.7" r="6" fill="#1BE7FF" stroke="#FFFFFF" stroke-width="2"/>
  <circle cx="346.7" cy="545.6" r="6" fill="#1BE7FF" stroke="#FFFFFF" stroke-width="2"/>
  <circle cx="543.3" cy="581.4" r="6" fill="#1BE7FF" stroke="#FFFFFF" stroke-width="2"/>
  <circle cx="740.0" cy="617.2" r="6" fill="#1BE7FF" stroke="#FFFFFF" stroke-width="2"/>
  <circle cx="936.7" cy="652.7" r="6" fill="#1BE7FF" stroke="#FFFFFF" stroke-width="2"/>
  <circle cx="1133.3" cy="688.0" r="6" fill="#1BE7FF" stroke="#FFFFFF" stroke-width="2"/>
  <circle cx="1330.0" cy="722.8" r="6" fill="#1BE7FF" stroke="#FFFFFF" stroke-width="2"/>
  <polyline points="150.0,390.5 346.7,426.3 543.3,462.2 740.0,497.9 936.7,533.5 1133.3,568.9 1330.0,603.7" fill="none" stroke="#F5A623" stroke-width="5" stroke-linejoin="round" stroke-linecap="round"/>
  <circle cx="150.0" cy="390.5" r="6" fill="#F5A623" stroke="#FFFFFF" stroke-width="2"/>
  <circle cx="346.7" cy="426.3" r="6" fill="#F5A623" stroke="#FFFFFF" stroke-width="2"/>
  <circle cx="543.3" cy="462.2" r="6" fill="#F5A623" stroke="#FFFFFF" stroke-width="2"/>
  <circle cx="740.0" cy="497.9" r="6" fill="#F5A623" stroke="#FFFFFF" stroke-width="2"/>
  <circle cx="936.7" cy="533.5" r="6" fill="#F5A623" stroke="#FFFFFF" stroke-width="2"/>
  <circle cx="1133.3" cy="568.9" r="6" fill="#F5A623" stroke="#FFFFFF" stroke-width="2"/>
  <circle cx="1330.0" cy="603.7" r="6" fill="#F5A623" stroke="#FFFFFF" stroke-width="2"/>
  <polyline points="150.0,271.3 346.7,307.1 543.3,342.9 740.0,378.7 936.7,414.3 1133.3,449.7 1330.0,484.5" fill="none" stroke="#FF4E4E" stroke-width="5" stroke-linejoin="round" stroke-linecap="round"/>
  <circle cx="150.0" cy="271.3" r="6" fill="#FF4E4E" stroke="#FFFFFF" stroke-width="2"/>
  <circle cx="346.7" cy="307.1" r="6" fill="#FF4E4E" stroke="#FFFFFF" stroke-width="2"/>
  <circle cx="543.3" cy="342.9" r="6" fill="#FF4E4E" stroke="#FFFFFF" stroke-width="2"/>
  <circle cx="740.0" cy="378.7" r="6" fill="#FF4E4E" stroke="#FFFFFF" stroke-width="2"/>
  <circle cx="936.7" cy="414.3" r="6" fill="#FF4E4E" stroke="#FFFFFF" stroke-width="2"/>
  <circle cx="1133.3" cy="449.7" r="6" fill="#FF4E4E" stroke="#FFFFFF" stroke-width="2"/>
  <circle cx="1330.0" cy="484.5" r="6" fill="#FF4E4E" stroke="#FFFFFF" stroke-width="2"/>
  <rect x="1045.0" y="92.0" width="360.0" height="108.0" rx="18" fill="#FFFFFF" stroke="#E1E6EE" stroke-width="1.5" />
  <line x1="1067.0" y1="120.0" x2="1093.0" y2="120.0" stroke="#1BE7FF" stroke-width="5"/>
  <circle cx="1080.0" cy="120.0" r="5" fill="#1BE7FF" stroke="#FFFFFF" stroke-width="2"/>
  <text x="1107.0" y="126.0" fill="#0E1C36" font-family="'Space Grotesk', Inter, sans-serif" font-size="16" font-weight="400" text-anchor="start" >1 TPS on-chain</text>
  <line x1="1067.0" y1="146.0" x2="1093.0" y2="146.0" stroke="#F5A623" stroke-width="5"/>
  <circle cx="1080.0" cy="146.0" r="5" fill="#F5A623" stroke="#FFFFFF" stroke-width="2"/>
  <text x="1107.0" y="152.0" fill="#0E1C36" font-family="'Space Grotesk', Inter, sans-serif" font-size="16" font-weight="400" text-anchor="start" >10 TPS on-chain</text>
  <line x1="1067.0" y1="172.0" x2="1093.0" y2="172.0" stroke="#FF4E4E" stroke-width="5"/>
  <circle cx="1080.0" cy="172.0" r="5" fill="#FF4E4E" stroke="#FFFFFF" stroke-width="2"/>
  <text x="1107.0" y="178.0" fill="#0E1C36" font-family="'Space Grotesk', Inter, sans-serif" font-size="16" font-weight="400" text-anchor="start" >100 TPS on-chain</text>
  <rect x="1010.0" y="780.0" width="420.0" height="116.0" rx="18" fill="#FFFFFF" stroke="#E1E6EE" stroke-width="1.5" />
  <text x="1034.0" y="814.0" fill="#0E1C36" font-family="'Space Grotesk', Inter, sans-serif" font-size="20" font-weight="600" text-anchor="start" >Raw DA does not improve with packing</text>
  <text x="1034.0" y="844.0" fill="#1BE7FF" font-family="'JetBrains Mono', ui-monospace, monospace" font-size="14" font-weight="400" text-anchor="start" >1 TPS   = 0.35 GiB/day</text>
  <text x="1034.0" y="868.0" fill="#F5A623" font-family="'JetBrains Mono', ui-monospace, monospace" font-size="14" font-weight="400" text-anchor="start" >10 TPS  = 3.46 GiB/day</text>
  <text x="1228.0" y="844.0" fill="#FF4E4E" font-family="'JetBrains Mono', ui-monospace, monospace" font-size="14" font-weight="400" text-anchor="start" >100 TPS = 34.55 GiB/day</text>
  <text x="1034.0" y="886.0" fill="#5F6B7A" font-family="'JetBrains Mono', ui-monospace, monospace" font-size="13" font-weight="400" text-anchor="start" >Use packing to amortize the recursive proof, not to hide DA cost.</text>
</svg>