<svg xmlns="http://www.w3.org/2000/svg" viewBox="0 0 512 512" role="img" aria-labelledby="title desc">
  <title id="title">Synthetic Hegemonic Currency crest</title>
  <desc id="desc">Glassy aurora shield encircled by balanced rails and an S-stroke of spectral liquidity.</desc>
  <defs>
    <radialGradient id="midnight" cx="50%" cy="45%" r="70%">
      <stop offset="0%" stop-color="#1a2339" />
      <stop offset="60%" stop-color="#0d1524" />
      <stop offset="100%" stop-color="#050911" />
    </radialGradient>
    <radialGradient id="halo" cx="50%" cy="50%" r="50%">
      <stop offset="0%" stop-color="#89f3ff" stop-opacity="0.9" />
      <stop offset="35%" stop-color="#74d2ff" stop-opacity="0.55" />
      <stop offset="100%" stop-color="#4c7bff" stop-opacity="0.25" />
    </radialGradient>
    <linearGradient id="rail" x1="0%" y1="0%" x2="0%" y2="100%">
      <stop offset="0%" stop-color="#9af8ff" />
      <stop offset="100%" stop-color="#5a84ff" />
    </linearGradient>
    <linearGradient id="shieldFace" x1="20%" y1="0%" x2="80%" y2="100%">
      <stop offset="0%" stop-color="#57f5ff" />
      <stop offset="55%" stop-color="#3583ff" />
      <stop offset="100%" stop-color="#5a4cff" />
    </linearGradient>
    <linearGradient id="shieldBevel" x1="0%" y1="0%" x2="100%" y2="0%">
      <stop offset="0%" stop-color="#9bf8ff" stop-opacity="0.7" />
      <stop offset="50%" stop-color="#ffffff" stop-opacity="0.55" />
      <stop offset="100%" stop-color="#9bf8ff" stop-opacity="0.25" />
    </linearGradient>
    <linearGradient id="signal" x1="0%" y1="0%" x2="100%" y2="0%">
      <stop offset="0%" stop-color="#ffe066" />
      <stop offset="40%" stop-color="#ff9d5c" />
      <stop offset="70%" stop-color="#ff5e8f" />
      <stop offset="100%" stop-color="#d46dff" />
    </linearGradient>
    <filter id="innerShadow" x="-20%" y="-20%" width="140%" height="140%">
      <feOffset dx="0" dy="6" />
      <feGaussianBlur stdDeviation="8" result="offset-blur" />
      <feComposite in="offset-blur" in2="SourceAlpha" operator="arithmetic" k2="-1" k3="1" />
      <feColorMatrix values="0 0 0 0 0  0 0 0 0 0  0 0 0 0 0  0 0 0 0.8 0" />
      <feBlend in="SourceGraphic" mode="normal" />
    </filter>
    <filter id="outerGlow" x="-30%" y="-30%" width="160%" height="160%">
      <feGaussianBlur in="SourceGraphic" stdDeviation="18" result="blur" />
      <feMerge>
        <feMergeNode in="blur" />
        <feMergeNode in="SourceGraphic" />
      </feMerge>
    </filter>
  </defs>
  <circle cx="256" cy="256" r="230" fill="url(#midnight)" />
  <circle cx="256" cy="256" r="214" fill="none" stroke="url(#halo)" stroke-width="32" filter="url(#outerGlow)" />
  <circle cx="256" cy="256" r="190" fill="none" stroke="url(#rail)" stroke-width="22" opacity="0.35" stroke-dasharray="360 40" />
  <circle cx="256" cy="256" r="168" fill="none" stroke="url(#rail)" stroke-width="10" opacity="0.35" stroke-dasharray="140 24" stroke-linecap="round" />
  <path d="M256 116l112 52v92c0 88-56 168-112 192-56-24-112-104-112-192v-92z" fill="url(#shieldFace)" stroke="#83f0ff" stroke-width="6" filter="url(#innerShadow)" />
  <path d="M164 190c24-46 72-78 120-78 36 0 78 14 108 42" fill="none" stroke="url(#shieldBevel)" stroke-width="8" stroke-linecap="round" opacity="0.65" />
  <path d="M352 330c-28 52-86 86-148 72" fill="none" stroke="url(#shieldBevel)" stroke-width="8" stroke-linecap="round" opacity="0.45" />
  <g filter="url(#outerGlow)">
    <path d="M322 152c-40-30-130-22-130 32 0 26 26 42 64 54 48 16 84 30 84 70 0 58-94 74-140 24" fill="none" stroke="url(#signal)" stroke-width="22" stroke-linecap="round" stroke-linejoin="round" />
  </g>
  <path d="M132 256c8-76 78-138 156-138 60 0 120 36 150 94" fill="none" stroke="#9fefff" stroke-width="18" stroke-linecap="round" stroke-dasharray="110 28" opacity="0.35" />
  <path d="M136 304c24 74 94 140 184 140 60 0 112-28 148-78" fill="none" stroke="#6ec9ff" stroke-width="14" stroke-linecap="round" stroke-dasharray="100 30" opacity="0.45" />
  <circle cx="148" cy="212" r="14" fill="#87f8ff" />
  <circle cx="398" cy="188" r="12" fill="#87f8ff" />
  <circle cx="404" cy="336" r="16" fill="#ff6ea4" />
  <circle cx="188" cy="378" r="14" fill="#ffd46b" />
  <circle cx="128" cy="296" r="10" fill="#6cf7c2" />
</svg>
